<svg xmlns="http://www.w3.org/2000/svg" id="Capa_2" data-name="Capa 2" viewBox="0 0 620.65 620.66"><defs><style>.cls-1{fill:#1a1a1a;fill-rule:evenodd}</style></defs><g id="Layer_1" data-name="Layer 1"><g><path d="m310.33,0H0v266h93.09V88.67h217.23c72.51,0,136.9,34.83,177.34,88.66,19.37,25.78,33.23,55.91,39.88,88.67,2.91,14.32,4.43,29.15,4.43,44.33s-1.53,30.01-4.43,44.33c-3.13,15.42-7.86,30.26-14.01,44.33,6.14,14.08,10.88,28.92,14.01,44.34,2.91,14.32,4.43,29.14,4.43,44.33s-1.53,29.97-4.43,44.29c25.95-25.44,47.46-55.4,63.23-88.61,13.08-27.57,22.24-57.36,26.72-88.67,2.07-14.48,3.15-29.28,3.15-44.33s-1.07-29.85-3.15-44.33c-4.48-31.31-13.63-61.11-26.72-88.67-15.79-33.23-37.31-63.21-63.28-88.66C471.54,33.82,394.88,0,310.33,0" class="cls-1"/><path d="m296.81,178.01c-.81.08-1.62.17-2.43.26.81-.09,1.61-.18,2.43-.26M93.14,443.33h216.8s.04,0,.04,0h.86c24.24.27,43.82,20.02,43.82,44.34s-19.84,44.33-44.33,44.33H93.14v-88.66Zm342.61-177.33c-18.26-51.66-67.52-88.67-125.42-88.67h-124.14v88.67h124.14c24.48,0,44.33,19.85,44.33,44.32s-19.37,43.85-43.44,44.34H0v266h310.33c57.9,0,107.16-37.02,125.42-88.67,4.9-13.86,7.56-28.78,7.56-44.33s-2.66-30.46-7.56-44.33c-5.84-16.52-14.85-31.54-26.3-44.34,11.45-12.79,20.46-27.81,26.3-44.33,4.91-13.86,7.56-28.78,7.56-44.34s-2.66-30.46-7.56-44.32Z" class="cls-1"/></g></g></svg>